<?xml version="1.0" standalone="no"?>
<!DOCTYPE svg PUBLIC "-//W3C//DTD SVG 20010904//EN"
 "http://www.w3.org/TR/2001/REC-SVG-20010904/DTD/svg10.dtd">
<svg version="1.0" xmlns="http://www.w3.org/2000/svg"
 width="1200.000000pt" height="1200.000000pt" viewBox="0 0 1200.000000 1200.000000"
 preserveAspectRatio="xMidYMid meet">
<metadata>
Created by potrace 1.14, written by Peter Selinger 2001-2017
</metadata>
<g transform="translate(0.000000,1200.000000) scale(0.100000,-0.100000)"
fill="#000000" stroke="none">
<path d="M5954 9850 c-28 -6 -75 -30 -174 -87 -107 -62 -697 -405 -710 -413
-14 -8 -197 -115 -315 -182 -27 -16 -66 -38 -85 -50 -91 -53 -1088 -632 -1114
-647 -196 -107 -250 -150 -277 -217 -8 -21 -12 -452 -15 -1583 -4 -1553 -4
-1553 17 -1601 12 -27 28 -55 37 -63 13 -12 316 -191 537 -317 61 -35 210
-121 225 -130 8 -5 85 -50 170 -99 85 -49 265 -153 400 -231 135 -78 265 -154
290 -168 25 -14 88 -50 140 -80 52 -30 196 -113 320 -185 124 -71 245 -141
269 -155 25 -13 68 -38 95 -55 151 -90 179 -102 241 -102 68 0 63 -2 270 120
83 49 166 97 185 108 19 10 52 29 72 41 79 46 243 142 260 151 9 6 59 34 110
64 51 30 107 62 123 71 17 10 108 63 203 119 96 55 176 101 178 101 3 0 10 5
17 11 12 10 804 471 1056 614 169 96 202 122 230 179 l24 48 1 1566 c1 1478 0
1569 -17 1599 -30 56 -38 61 -325 228 -9 6 -52 29 -94 53 -43 24 -80 47 -83
53 -4 5 -11 7 -16 4 -5 -4 -9 -1 -9 4 0 6 -4 11 -9 11 -5 0 -45 21 -88 47 -43
25 -87 51 -98 57 -11 6 -82 47 -158 91 -76 44 -171 98 -211 120 -40 22 -80 45
-87 51 -8 6 -49 31 -93 55 -43 24 -95 54 -115 66 -20 11 -48 28 -63 36 -32 18
-407 235 -428 248 -42 25 -720 414 -751 430 -42 21 -91 28 -135 19z"/>
</g>
</svg>
